<svg xmlns="http://www.w3.org/2000/svg" xmlns:xlink="http://www.w3.org/1999/xlink" version="1.1" id="Layer_1" x="0px" y="0px" style="enable-background:new 0 0 1920 1080;" xml:space="preserve" viewBox="411.7 418 1102.1 244.7">
<style type="text/css">
	.st0{fill:#231F20;}
</style>
<g>
	<g>
		<path class="st0" d="M411.7,534.9V421.3h30.6v114.4c0,23.4,9.4,42.4,34.8,42.4c25.7,0,35-19,35-42.4V421.3h30.6v113.5    c0,43.1-23.6,72.9-65.6,72.9C435.1,607.8,411.7,577.7,411.7,534.9z"/>
		<path class="st0" d="M653.3,604.9l-21.4-44.8c-5.8,0.9-12,1.6-19,1.6h-13.8v43.5h-30.6v-184h40.6c57.8,0,79,33.7,79,70.3    c0,23.2-8.9,45.3-29,58.2l30.8,55.3H653.3z M613.8,532c29,0,44.4-16.5,44.4-40.6c0-25-15.8-40.4-44.4-40.4h-14.7v81H613.8z"/>
		<path class="st0" d="M709.3,421.3h47.5c41,0,61.6,15.4,61.6,48.6c0,17.8-8.3,30.6-21.9,36.6c20.3,5.4,32.1,22.1,32.1,43.1    c0,35.9-23.2,55.3-73.4,55.3h-46V421.3z M757.5,496.9c20.7,0,32.1-6.7,32.1-24.1c0-18.7-10.9-25.2-32.1-25.2h-19.2v49.3H757.5z     M754.6,576.8c29.4,0,43.1-6.7,43.1-27.4c0-19.6-13.4-27.9-40.2-27.9h-19.2v55.3H754.6z"/>
		<path class="st0" d="M958.9,577.9h-88.8l-10,27h-32.1l70.9-183.6H931l69.2,183.6h-31.5L958.9,577.9z M949.3,551.8l-34.4-94.4    l-35,94.4H949.3z"/>
		<path class="st0" d="M1012.6,421.3h31l74.1,128.3V421.1h30.8v183.8h-30.3l-74.7-129.2v129.2h-30.8V421.3z"/>
		<path class="st0" d="M1176.1,420.9h95.9v29.2h-65.4V499h59.6v27h-59.6v79h-30.6V420.9z"/>
		<path class="st0" d="M1292.4,421.1h30.6v154.6h61.3v29.2h-91.9V421.1z"/>
		<path class="st0" d="M1453.6,538.4c-32.3,0-60.5-26.1-60.5-60.2c0-34.1,28.1-60.2,60.5-60.2c33.2,0,60.2,26.1,60.2,60.2    C1513.9,512.3,1486.9,538.4,1453.6,538.4z M1453.6,447.2c-16.7,0-31.2,14.5-31.2,31c0,16.5,14.5,31,31.2,31    c17,0,30.8-14.1,30.8-31S1470.6,447.2,1453.6,447.2z"/>
	</g>
	<polyline class="st0" points="653.7,604.8 685.1,662.7 1445.4,662.7 1445.4,634.8 706.6,634.8 689.5,604.3  "/>
	<rect x="1439.8" y="575.2" class="st0" width="28" height="87.5"/>
</g>
<g>
</g>
<g>
</g>
<g>
</g>
<g>
</g>
<g>
</g>
<g>
</g>
</svg>